<?xml version="1.0" standalone="no"?><svg xmlns="http://www.w3.org/2000/svg" viewBox="0 0 1440 320"><path fill="#5000ca" fill-opacity="1" d="M0,64L14.1,96C28.2,128,56,192,85,208C112.9,224,141,192,169,154.7C197.6,117,226,75,254,96C282.4,117,311,203,339,240C367.1,277,395,267,424,272C451.8,277,480,299,508,288C536.5,277,565,235,593,197.3C621.2,160,649,128,678,117.3C705.9,107,734,117,762,117.3C790.6,117,819,107,847,122.7C875.3,139,904,181,932,186.7C960,192,988,160,1016,144C1044.7,128,1073,128,1101,154.7C1129.4,181,1158,235,1186,218.7C1214.1,203,1242,117,1271,117.3C1298.8,117,1327,203,1355,224C1383.5,245,1412,203,1426,181.3L1440,160L1440,320L1425.9,320C1411.8,320,1384,320,1355,320C1327.1,320,1299,320,1271,320C1242.4,320,1214,320,1186,320C1157.6,320,1129,320,1101,320C1072.9,320,1045,320,1016,320C988.2,320,960,320,932,320C903.5,320,875,320,847,320C818.8,320,791,320,762,320C734.1,320,706,320,678,320C649.4,320,621,320,593,320C564.7,320,536,320,508,320C480,320,452,320,424,320C395.3,320,367,320,339,320C310.6,320,282,320,254,320C225.9,320,198,320,169,320C141.2,320,113,320,85,320C56.5,320,28,320,14,320L0,320Z"></path></svg>