<?xml version="1.0" standalone="no"?><svg xmlns="http://www.w3.org/2000/svg" viewBox="0 0 1440 320"><path fill="#0099ff" fill-opacity="1" d="M0,64L21.8,53.3C43.6,43,87,21,131,16C174.5,11,218,21,262,58.7C305.5,96,349,160,393,154.7C436.4,149,480,75,524,53.3C567.3,32,611,64,655,90.7C698.2,117,742,139,785,165.3C829.1,192,873,224,916,218.7C960,213,1004,171,1047,176C1090.9,181,1135,235,1178,250.7C1221.8,267,1265,245,1309,202.7C1352.7,160,1396,96,1418,64L1440,32L1440,0L1418.2,0C1396.4,0,1353,0,1309,0C1265.5,0,1222,0,1178,0C1134.5,0,1091,0,1047,0C1003.6,0,960,0,916,0C872.7,0,829,0,785,0C741.8,0,698,0,655,0C610.9,0,567,0,524,0C480,0,436,0,393,0C349.1,0,305,0,262,0C218.2,0,175,0,131,0C87.3,0,44,0,22,0L0,0Z"></path></svg>